# This file uses centimeters as units for non-parametric coordinates.

mtllib distancebush3.mtl
g default
v -4.854293 -1.219317 1.400451
v -2.372139 -1.219316 1.400451
v -3.613216 1.604459 1.400451
v -3.613216 -2.121094 1.400451
v -2.495619 0.702682 1.400451
v -4.730813 0.702682 1.400451
v -3.613216 -0.230903 1.400451
v -4.958224 -0.244384 1.400451
v -4.329752 -1.879463 1.400451
v -3.613216 -1.219317 1.400451
v -4.172014 0.251793 1.400451
v -4.218837 -0.739809 1.400451
v -2.896679 -1.879463 1.400451
v -2.268208 -0.244384 1.400451
v -3.054418 0.251793 1.400451
v -3.007595 -0.739809 1.400451
v -2.967972 1.362829 1.400451
v -4.258461 1.362828 1.400451
v -3.613216 0.702682 1.400451
v -4.451413 0.477237 1.400451
v -4.859733 0.267699 1.400451
v -4.574693 -0.467243 1.400451
v -4.188594 -0.230903 1.400451
v -4.494637 0.026349 1.400451
v -4.973386 -0.763632 1.400451
v -4.626551 -1.592845 1.400451
v -4.281754 -1.323946 1.400451
v -4.611473 -1.040787 1.400451
v -3.984122 -2.059639 1.400451
v -3.613216 -1.670205 1.400451
v -3.920962 -0.984193 1.400451
v -3.947485 -1.497075 1.400451
v -3.613216 -0.739809 1.400451
v -3.892615 0.026349 1.400451
v -3.903638 -0.466832 1.400451
v -3.242309 -2.059639 1.400451
v -2.944678 -1.323946 1.400451
v -3.305470 -0.984193 1.400451
v -3.278947 -1.497075 1.400451
v -2.599880 -1.592845 1.400451
v -2.253045 -0.763632 1.400451
v -2.651739 -0.467243 1.400451
v -2.614959 -1.040787 1.400451
v -2.366699 0.267699 1.400451
v -2.775018 0.477238 1.400451
v -3.037838 -0.230903 1.400451
v -2.731795 0.026349 1.400451
v -3.333817 0.026349 1.400451
v -3.322794 -0.466832 1.400451
v -2.700702 1.076210 1.400451
v -3.290594 1.032755 1.400451
v -3.333817 0.477238 1.400451
v -3.032806 0.754996 1.400451
v -3.279213 1.543005 1.400451
v -3.947219 1.543004 1.400451
v -3.935838 1.032755 1.400451
v -3.613216 1.258200 1.400451
v -4.525730 1.076210 1.400451
v -3.892615 0.477237 1.400451
v -4.193626 0.754996 1.400451
v -3.613216 0.251793 1.400451
vt 0.032435 0.240776
vt 0.698686 0.243327
vt 0.362659 1.000000
vt 0.366487 0.000000
vt 0.663567 0.759097
vt 0.063604 0.756800
vt 0.364545 0.507359
vt 0.003536 0.502358
vt 0.173909 0.064121
vt 0.365561 0.242052
vt 0.214058 0.636348
vt 0.202509 0.370137
vt 0.558569 0.065594
vt 0.725581 0.505122
vt 0.514039 0.637496
vt 0.527626 0.371382
vt 0.536101 0.935805
vt 0.189713 0.934479
vt 0.363585 0.757948
vt 0.138831 0.696574
vt 0.029447 0.639910
vt 0.106711 0.442933
vt 0.210104 0.506767
vt 0.127693 0.575503
vt 0.000000 0.362967
vt 0.093948 0.140749
vt 0.186221 0.213281
vt 0.097428 0.288946
vt 0.266867 0.016114
vt 0.366024 0.121026
vt 0.282715 0.304847
vt 0.276123 0.167153
vt 0.365068 0.370760
vt 0.289285 0.576122
vt 0.286833 0.443733
vt 0.465982 0.016877
vt 0.545115 0.214655
vt 0.447923 0.305479
vt 0.455569 0.167840
vt 0.637940 0.142832
vt 0.730184 0.365763
vt 0.622864 0.444909
vt 0.633326 0.290998
vt 0.698618 0.642472
vt 0.588803 0.698296
vt 0.518986 0.507950
vt 0.600868 0.577315
vt 0.439276 0.576696
vt 0.442741 0.444330
vt 0.608135 0.859147
vt 0.449843 0.846877
vt 0.438812 0.697722
vt 0.519323 0.772587
vt 0.452374 0.983848
vt 0.273070 0.983161
vt 0.276649 0.846214
vt 0.363014 0.907058
vt 0.118268 0.857271
vt 0.288822 0.697148
vt 0.207740 0.771394
vt 0.364049 0.636922
vn -0.000000 -0.000000 1.000000
vn 0.000000 -0.000000 1.000000
vn -0.000000 0.000000 1.000000
vn -0.000000 -0.000000 1.000000
vn -0.000000 0.000000 1.000000
vn -0.000000 -0.000000 1.000000
vn -0.000000 -0.000000 1.000000
vn -0.000000 -0.000000 1.000000
vn 0.000000 0.000000 1.000000
vn 0.000000 -0.000000 1.000000
vn -0.000000 -0.000000 1.000000
vn 0.000000 0.000000 1.000000
vn -0.000000 0.000000 1.000000
vn -0.000000 0.000000 1.000000
vn -0.000000 -0.000000 1.000000
vn 0.000000 0.000000 1.000000
vn -0.000000 -0.000000 1.000000
vn 0.000000 0.000000 1.000000
vn 0.000000 0.000000 1.000000
vn 0.000000 0.000000 1.000000
vn 0.000000 -0.000000 1.000000
vn -0.000000 0.000000 1.000000
vn 0.000000 0.000000 1.000000
vn -0.000000 0.000000 1.000000
vn 0.000000 -0.000000 1.000000
vn -0.000000 0.000000 1.000000
vn 0.000000 0.000000 1.000000
vn 0.000000 0.000000 1.000000
vn 0.000000 0.000000 1.000000
vn 0.000000 0.000000 1.000000
vn 0.000001 -0.000000 1.000000
vn 0.000000 0.000000 1.000000
vn 0.000000 0.000000 1.000000
vn -0.000000 0.000000 1.000000
vn -0.000000 -0.000000 1.000000
vn 0.000000 -0.000000 1.000000
vn 0.000000 -0.000000 1.000000
vn 0.000000 0.000000 1.000000
vn -0.000000 0.000000 1.000000
vn 0.000000 0.000000 1.000000
vn 0.000000 0.000000 1.000000
vn -0.000000 0.000000 1.000000
vn 0.000000 0.000000 1.000000
vn 0.000000 -0.000000 1.000000
vn -0.000000 0.000000 1.000000
vn 0.000000 0.000000 1.000000
vn 0.000000 0.000000 1.000000
vn 0.000000 0.000000 1.000000
vn 0.000000 -0.000000 1.000000
vn -0.000000 0.000000 1.000000
vn -0.000000 0.000000 1.000000
vn 0.000000 0.000000 1.000000
vn -0.000000 0.000000 1.000000
vn 0.000000 0.000000 1.000000
vn -0.000000 0.000000 1.000000
vn -0.000000 0.000000 1.000000
vn -0.000000 0.000000 1.000000
vn -0.000000 0.000000 1.000000
vn 0.000000 0.000000 1.000000
vn 0.000000 0.000000 1.000000
vn -0.000000 -0.000000 1.000000
s 1
g pDisc2
usemtl initialShadingGroup
f 23/23/1 11/11/2 20/20/3 24/24/4
f 20/20/3 6/6/5 21/21/6 24/24/4
f 21/21/6 8/8/7 22/22/8 24/24/4
f 22/22/8 12/12/9 23/23/1 24/24/4
f 22/22/8 8/8/7 25/25/10 28/28/11
f 25/25/10 1/1/12 26/26/13 28/28/11
f 26/26/13 9/9/14 27/27/15 28/28/11
f 27/27/15 12/12/9 22/22/8 28/28/11
f 27/27/15 9/9/14 29/29/16 32/32/17
f 29/29/16 4/4/18 30/30/19 32/32/17
f 30/30/19 10/10/20 31/31/21 32/32/17
f 31/31/21 12/12/9 27/27/15 32/32/17
f 31/31/21 10/10/20 33/33/22 35/35/23
f 33/33/22 7/7/24 34/34/25 35/35/23
f 34/34/25 11/11/2 23/23/1 35/35/23
f 23/23/1 12/12/9 31/31/21 35/35/23
f 38/38/26 10/10/20 30/30/19 39/39/27
f 30/30/19 4/4/18 36/36/28 39/39/27
f 36/36/28 13/13/29 37/37/30 39/39/27
f 37/37/30 16/16/31 38/38/26 39/39/27
f 37/37/30 13/13/29 40/40/32 43/43/33
f 40/40/32 2/2/34 41/41/35 43/43/33
f 41/41/35 14/14/36 42/42/37 43/43/33
f 42/42/37 16/16/31 37/37/30 43/43/33
f 42/42/37 14/14/36 44/44/38 47/47/39
f 44/44/38 5/5/40 45/45/41 47/47/39
f 45/45/41 15/15/42 46/46/43 47/47/39
f 46/46/43 16/16/31 42/42/37 47/47/39
f 46/46/43 15/15/42 48/48/44 49/49/45
f 48/48/44 7/7/24 33/33/22 49/49/45
f 33/33/22 10/10/20 38/38/26 49/49/45
f 38/38/26 16/16/31 46/46/43 49/49/45
f 52/52/46 15/15/42 45/45/41 53/53/47
f 45/45/41 5/5/40 50/50/48 53/53/47
f 50/50/48 17/17/49 51/51/50 53/53/47
f 51/51/50 19/19/51 52/52/46 53/53/47
f 51/51/50 17/17/49 54/54/52 57/57/53
f 54/54/52 3/3/54 55/55/55 57/57/53
f 55/55/55 18/18/56 56/56/57 57/57/53
f 56/56/57 19/19/51 51/51/50 57/57/53
f 56/56/57 18/18/56 58/58/58 60/60/59
f 58/58/58 6/6/5 20/20/3 60/60/59
f 20/20/3 11/11/2 59/59/60 60/60/59
f 59/59/60 19/19/51 56/56/57 60/60/59
f 59/59/60 11/11/2 34/34/25 61/61/61
f 34/34/25 7/7/24 48/48/44 61/61/61
f 48/48/44 15/15/42 52/52/46 61/61/61
f 52/52/46 19/19/51 59/59/60 61/61/61
