# This file uses centimeters as units for non-parametric coordinates.

mtllib DistantBush1.mtl
g default
v 1.138802 -1.121199 1.400451
v 2.802305 -1.121198 1.400451
v 1.970553 4.221188 1.400451
v 1.970554 -2.317877 1.400451
v 2.802305 2.440393 1.400451
v 1.138802 2.440392 1.400451
v 1.970554 0.659597 1.400451
v 1.010129 0.659596 1.400451
v 1.490341 -2.101534 1.400451
v 1.970554 -1.121199 1.400451
v 1.554678 1.549994 1.400451
v 1.554678 -0.230801 1.400451
v 2.450766 -2.101534 1.400451
v 2.930978 0.659597 1.400451
v 2.386429 1.549995 1.400451
v 2.386429 -0.230801 1.400451
v 2.450765 3.744025 1.400451
v 1.490341 3.744025 1.400451
v 1.970553 2.440392 1.400451
v 1.346740 1.995193 1.400451
v 1.042855 1.581404 1.400451
v 1.282403 0.214398 1.400451
v 1.554678 0.659597 1.400451
v 1.314572 1.104795 1.400451
v 1.042855 -0.262211 1.400451
v 1.291431 -1.858828 1.400451
v 1.522510 -1.327816 1.400451
v 1.298487 -0.779309 1.400451
v 1.721977 -2.258540 1.400451
v 1.970554 -2.011596 1.400451
v 1.762616 -0.676000 1.400451
v 1.746532 -1.669706 1.400451
v 1.970554 -0.230801 1.400451
v 1.762616 1.104796 1.400451
v 1.762616 0.214398 1.400451
v 2.219130 -2.258540 1.400451
v 2.418597 -1.327816 1.400451
v 2.178492 -0.676000 1.400451
v 2.194576 -1.669706 1.400451
v 2.649676 -1.858828 1.400451
v 2.898252 -0.262210 1.400451
v 2.658704 0.214398 1.400451
v 2.642619 -0.779308 1.400451
v 2.898252 1.581405 1.400451
v 2.594367 1.995194 1.400451
v 2.386429 0.659597 1.400451
v 2.626535 1.104796 1.400451
v 2.178491 1.104796 1.400451
v 2.178491 0.214398 1.400451
v 2.649676 3.178022 1.400451
v 2.210659 3.092209 1.400451
v 2.178491 1.995193 1.400451
v 2.402513 2.543701 1.400451
v 2.219130 4.099830 1.400451
v 1.721977 4.099829 1.400451
v 1.730447 3.092208 1.400451
v 1.970553 3.537407 1.400451
v 1.291431 3.178021 1.400451
v 1.762615 1.995193 1.400451
v 1.538594 2.543701 1.400451
v 1.970554 1.549994 1.400451
vt 0.003558 0.193767
vt 0.257953 0.172242
vt 0.199882 1.000000
vt 0.115272 0.000000
vt 0.304037 0.716906
vt 0.049642 0.738430
vt 0.153798 0.455336
vt 0.006923 0.467763
vt 0.044633 0.039298
vt 0.130756 0.183005
vt 0.101720 0.596883
vt 0.078678 0.324552
vt 0.191508 0.026871
vt 0.300673 0.442909
vt 0.228917 0.586121
vt 0.205875 0.313789
vt 0.267145 0.920815
vt 0.120270 0.933242
vt 0.176840 0.727668
vt 0.075681 0.667657
vt 0.023855 0.608309
vt 0.042800 0.396158
vt 0.090199 0.460717
vt 0.059241 0.531907
vt 0.000000 0.326371
vt 0.017355 0.078988
vt 0.059564 0.157204
vt 0.032402 0.243985
vt 0.078025 0.012291
vt 0.119235 0.046839
vt 0.104717 0.253778
vt 0.089399 0.102022
vt 0.142277 0.319170
vt 0.127759 0.526110
vt 0.116238 0.389944
vt 0.154053 0.005858
vt 0.196600 0.145610
vt 0.168316 0.248397
vt 0.157917 0.096224
vt 0.225067 0.061414
vt 0.283740 0.302363
vt 0.253274 0.378349
vt 0.237956 0.226593
vt 0.307595 0.584302
vt 0.266477 0.651514
vt 0.217396 0.449955
vt 0.259876 0.514931
vt 0.191358 0.520729
vt 0.179837 0.384563
vt 0.290240 0.831685
vt 0.221992 0.824242
vt 0.202879 0.656895
vt 0.244235 0.737878
vt 0.236326 0.978225
vt 0.160297 0.984657
vt 0.148555 0.830455
vt 0.191034 0.895432
vt 0.082528 0.849259
vt 0.139280 0.662276
vt 0.112118 0.749056
vt 0.165319 0.591502
vn -0.000000 0.000000 1.000000
vn -0.000000 0.000000 1.000000
vn 0.000000 0.000000 1.000000
vn 0.000000 0.000000 1.000000
vn 0.000000 -0.000000 1.000000
vn 0.000000 0.000000 1.000000
vn -0.000000 0.000000 1.000000
vn -0.000000 0.000000 1.000000
vn 0.000000 0.000000 1.000000
vn -0.000001 0.000000 1.000000
vn 0.000000 0.000000 1.000000
vn -0.000000 0.000000 1.000000
vn -0.000000 0.000000 1.000000
vn 0.000000 0.000000 1.000000
vn 0.000000 0.000000 1.000000
vn 0.000000 0.000000 1.000000
vn 0.000000 0.000000 1.000000
vn 0.000000 0.000000 1.000000
vn 0.000000 0.000000 1.000000
vn 0.000000 0.000000 1.000000
vn -0.000000 0.000000 1.000000
vn -0.000000 0.000000 1.000000
vn -0.000001 0.000000 1.000000
vn -0.000000 0.000000 1.000000
vn -0.000000 0.000000 1.000000
vn -0.000000 0.000000 1.000000
vn -0.000000 0.000000 1.000000
vn 0.000000 0.000000 1.000000
vn 0.000000 0.000000 1.000000
vn 0.000000 0.000000 1.000000
vn -0.000000 0.000000 1.000000
vn 0.000001 0.000000 1.000000
vn -0.000000 0.000000 1.000000
vn 0.000000 0.000000 1.000000
vn 0.000001 -0.000000 1.000000
vn 0.000000 -0.000000 1.000000
vn 0.000000 -0.000000 1.000000
vn 0.000000 0.000000 1.000000
vn 0.000000 0.000000 1.000000
vn 0.000000 0.000000 1.000000
vn 0.000000 0.000000 1.000000
vn 0.000000 0.000000 1.000000
vn 0.000000 0.000000 1.000000
vn -0.000000 0.000000 1.000000
vn 0.000000 0.000000 1.000000
vn 0.000000 0.000000 1.000000
vn -0.000000 -0.000000 1.000000
vn -0.000000 -0.000000 1.000000
vn -0.000000 -0.000000 1.000000
vn -0.000000 -0.000000 1.000000
vn 0.000000 0.000000 1.000000
vn -0.000000 0.000000 1.000000
vn -0.000000 -0.000000 1.000000
vn 0.000000 0.000000 1.000000
vn 0.000000 -0.000000 1.000000
vn 0.000000 -0.000000 1.000000
vn 0.000000 0.000000 1.000000
vn 0.000000 -0.000000 1.000000
vn 0.000000 -0.000000 1.000000
vn 0.000000 0.000000 1.000000
vn 0.000000 0.000000 1.000000
s 1
g pDisc3
usemtl initialShadingGroup
f 23/23/1 11/11/2 20/20/3 24/24/4
f 20/20/3 6/6/5 21/21/6 24/24/4
f 21/21/6 8/8/7 22/22/8 24/24/4
f 22/22/8 12/12/9 23/23/1 24/24/4
f 22/22/8 8/8/7 25/25/10 28/28/11
f 25/25/10 1/1/12 26/26/13 28/28/11
f 26/26/13 9/9/14 27/27/15 28/28/11
f 27/27/15 12/12/9 22/22/8 28/28/11
f 27/27/15 9/9/14 29/29/16 32/32/17
f 29/29/16 4/4/18 30/30/19 32/32/17
f 30/30/19 10/10/20 31/31/21 32/32/17
f 31/31/21 12/12/9 27/27/15 32/32/17
f 31/31/21 10/10/20 33/33/22 35/35/23
f 33/33/22 7/7/24 34/34/25 35/35/23
f 34/34/25 11/11/2 23/23/1 35/35/23
f 23/23/1 12/12/9 31/31/21 35/35/23
f 38/38/26 10/10/20 30/30/19 39/39/27
f 30/30/19 4/4/18 36/36/28 39/39/27
f 36/36/28 13/13/29 37/37/30 39/39/27
f 37/37/30 16/16/31 38/38/26 39/39/27
f 37/37/30 13/13/29 40/40/32 43/43/33
f 40/40/32 2/2/34 41/41/35 43/43/33
f 41/41/35 14/14/36 42/42/37 43/43/33
f 42/42/37 16/16/31 37/37/30 43/43/33
f 42/42/37 14/14/36 44/44/38 47/47/39
f 44/44/38 5/5/40 45/45/41 47/47/39
f 45/45/41 15/15/42 46/46/43 47/47/39
f 46/46/43 16/16/31 42/42/37 47/47/39
f 46/46/43 15/15/42 48/48/44 49/49/45
f 48/48/44 7/7/24 33/33/22 49/49/45
f 33/33/22 10/10/20 38/38/26 49/49/45
f 38/38/26 16/16/31 46/46/43 49/49/45
f 52/52/46 15/15/42 45/45/41 53/53/47
f 45/45/41 5/5/40 50/50/48 53/53/47
f 50/50/48 17/17/49 51/51/50 53/53/47
f 51/51/50 19/19/51 52/52/46 53/53/47
f 51/51/50 17/17/49 54/54/52 57/57/53
f 54/54/52 3/3/54 55/55/55 57/57/53
f 55/55/55 18/18/56 56/56/57 57/57/53
f 56/56/57 19/19/51 51/51/50 57/57/53
f 56/56/57 18/18/56 58/58/58 60/60/59
f 58/58/58 6/6/5 20/20/3 60/60/59
f 20/20/3 11/11/2 59/59/60 60/60/59
f 59/59/60 19/19/51 56/56/57 60/60/59
f 59/59/60 11/11/2 34/34/25 61/61/61
f 34/34/25 7/7/24 48/48/44 61/61/61
f 48/48/44 15/15/42 52/52/46 61/61/61
f 52/52/46 19/19/51 59/59/60 61/61/61
