# This file uses centimeters as units for non-parametric coordinates.

mtllib ExperimentalRoad.mtl
g default
v 21.896528 -18.678082 -46.258778
v 117.622177 -20.200003 -63.698761
v 37.943924 -20.200001 -156.744263
v 112.405205 -20.200003 -178.846680
v -48.537216 -19.641155 -38.780354
v 29.072161 -18.422098 -147.187988
v -57.531929 -18.528767 -73.208862
v 12.570436 -14.802139 -146.172531
v 5.313829 -18.375902 -153.829376
v -54.266636 -15.981490 -93.517731
v 5.313829 -7.946963 -153.829376
v 3.417071 -12.548710 -164.027298
v -55.520424 -12.607895 -128.681427
v 3.417103 -2.119774 -164.027298
v 23.545109 -18.566650 -138.801422
v 8.880759 -15.224170 -139.742645
v 2.824004 -8.606236 -147.266113
v -1.338662 -2.705800 -158.907166
v 112.492668 -20.200003 -168.199127
v 35.908958 -20.200001 -144.673523
v -59.873791 -8.041839 -149.228821
v -1.685924 1.290019 -166.613190
v 4.393039 -6.199918 -168.437210
v 3.807643 2.365776 -168.628769
v -2.910109 -0.636157 -170.707123
v -54.825386 4.679153 -172.220718
v 2.198449 6.865240 -170.677689
v 7.453227 0.616123 -170.406235
v 6.867863 6.996839 -170.597763
v -5.147017 -0.268220 -195.298538
v -49.491745 5.887766 -196.511581
v 0.312815 4.219500 -194.622040
v 11.665831 -0.972809 -193.576080
v 11.344034 3.809849 -194.031113
v -40.307644 4.088344 -205.703049
v 0.823954 4.525225 -202.287201
v 20.657633 -2.354320 -204.176895
v 21.385666 2.010427 -204.080063
v -3.669825 -17.016085 -195.729507
v 13.521302 -15.661220 -195.635956
v 19.495729 -11.621140 -204.422394
v 116.271194 -20.200003 -105.029381
v 23.939751 -20.200001 -94.743706
v -6.021898 -19.475416 -105.354240
v -15.407631 -16.487087 -119.661758
v -20.622700 -12.178236 -132.000351
v -24.447788 -6.207638 -147.811661
v -25.474178 -0.934335 -160.974777
v -24.443098 5.552371 -171.568542
v -20.706947 4.923584 -195.419510
v -20.746790 4.296110 -204.078583
v 116.279610 -20.200003 -104.006683
v 23.732304 -20.200001 -93.798981
v -6.474778 -19.493050 -104.851227
v -15.836800 -16.517281 -119.202827
v -21.044083 -12.226576 -131.624893
v -24.749279 -5.952425 -147.650604
v -25.818491 -0.990364 -160.870590
v -24.940378 5.523482 -171.582596
v -21.232214 4.941178 -195.439453
v -21.285822 4.290385 -204.123337
v 116.236160 -20.200003 -109.294197
v 24.804785 -20.200001 -98.683266
v -4.133373 -19.401873 -107.451843
v -13.617933 -16.361183 -121.575577
v -19.127787 -11.976645 -133.513626
v -23.190615 -5.958940 -148.483322
v -24.038315 -0.700686 -161.409225
v -22.369331 5.672847 -171.509872
v -18.516556 4.850214 -195.336411
v -18.498981 4.319985 -203.891907
v -17.758356 -18.166014 -195.908478
v -13.837276 0.882320 -195.503372
v 116.317703 -20.200003 -99.369072
v 22.791645 -20.200001 -89.515038
v -8.528385 -19.573021 -102.570259
v -17.782970 -16.654188 -117.121735
v -22.606771 -12.445789 -129.991913
v -26.116388 -6.222864 -146.920242
v -27.379864 -1.244437 -160.398193
v -27.195433 5.392475 -171.646393
v -23.614065 5.020961 -195.529800
v -23.730116 4.264422 -204.326324
v 116.266472 -21.070545 -103.976181
v 23.774851 -21.004017 -93.787880
v 116.259354 -21.070545 -104.982132
v 23.953142 -21.049080 -94.748253
v -6.429070 -20.318253 -104.839272
v -5.997617 -20.303259 -105.336586
v -15.835615 -17.382820 -119.191719
v -15.398308 -17.357157 -119.672455
v -21.039982 -13.192289 -131.635422
v -20.608372 -13.151199 -131.989212
v -24.753006 -6.949050 -147.639267
v -24.433016 -6.898357 -147.792068
v -25.817972 -1.926481 -160.855530
v -25.461586 -1.878856 -160.975952
v -24.942101 4.329761 -171.588516
v -24.445122 4.354317 -171.560043
v -21.176695 4.094075 -194.313675
v -20.730221 4.079119 -194.296738
v -21.255520 3.507524 -202.906113
v -20.797348 3.512390 -202.868073
v 117.535759 -20.200005 -74.216599
v 24.171751 -18.678082 -56.620613
v -23.236340 -18.362154 -61.033669
v -31.790428 -17.295525 -93.830650
v -36.324314 -14.111530 -108.681473
v -44.348770 -10.936539 -133.305664
v -47.838371 -6.530611 -152.217300
v -46.233414 5.003677 -171.405502
v -42.789364 5.663262 -196.257294
v -36.014023 4.133948 -205.346481
vt 0.268203 0.355733
vt 0.296803 0.343525
vt 0.291929 0.379303
vt 0.261874 0.393364
vt 0.280270 0.399441
vt 0.258941 0.414193
vt 0.258994 0.429258
vt 0.272558 0.421784
vt 0.292913 0.495473
vt 0.276587 0.499341
vt 0.584755 0.131143
vt 0.585284 0.137949
vt 0.583560 0.136024
vt 0.582964 0.133120
vt 0.168687 0.337895
vt 0.179961 0.285753
vt 0.182907 0.285677
vt 0.171728 0.337320
vt 0.195153 0.245521
vt 0.197698 0.246086
vt 0.163897 0.380388
vt 0.166556 0.379276
vt 0.162996 0.417911
vt 0.166378 0.416904
vt 0.167678 0.490189
vt 0.170311 0.486862
vt 0.168089 0.515532
vt 0.169392 0.510378
vt 0.186678 0.288549
vt 0.174539 0.338985
vt 0.172716 0.337841
vt 0.184266 0.286748
vt 0.170207 0.381057
vt 0.167635 0.379719
vt 0.201152 0.249207
vt 0.199089 0.247509
vt 0.171299 0.417691
vt 0.167895 0.416956
vt 0.174486 0.490137
vt 0.171675 0.486916
vt 0.171144 0.515629
vt 0.170519 0.510243
vt 0.281443 0.013042
vt 0.567208 0.011499
vt 0.582401 0.117469
vt 0.303338 0.142667
vt 0.308415 0.154966
vt 0.214850 0.193172
vt 0.076176 0.011212
vt 0.221729 0.199591
vt 0.370799 0.307371
vt 0.618128 0.322906
vt 0.625888 0.354248
vt 0.385630 0.341529
vt 0.315624 0.173893
vt 0.587630 0.150531
vt 0.310924 0.162586
vt 0.232639 0.210584
vt 0.328583 0.295814
vt 0.226415 0.204739
vt 0.072689 0.413806
vt 0.156194 0.417521
vt 0.160604 0.490095
vt 0.082794 0.487998
vt 0.160387 0.516237
vt 0.296387 0.408508
vt 0.333511 0.457972
vt 0.177530 0.418057
vt 0.181073 0.490550
vt 0.248196 0.425815
vt 0.239658 0.495134
vt 0.178084 0.515834
vt 0.237073 0.516262
vt 0.286472 0.541728
vt 0.309229 0.157283
vt 0.310308 0.160073
vt 0.223590 0.201240
vt 0.225017 0.202637
vt 0.188988 0.239397
vt 0.058960 0.114582
vt 0.175018 0.280775
vt 0.073646 0.173534
vt 0.164472 0.335415
vt 0.074859 0.275748
vt 0.159120 0.378502
vt 0.061000 0.336112
vt 0.246034 0.376995
vt 0.259534 0.336191
vt 0.178424 0.341266
vt 0.191415 0.293128
vt 0.281155 0.305696
vt 0.294925 0.323974
vt 0.242549 0.403714
vt 0.206945 0.254782
vt 0.174631 0.382648
vt 0.350378 0.318743
vt 0.109138 0.518238
vt 0.297807 0.540834
vt 0.336743 0.520284
vt 0.322125 0.543416
vt 0.366573 0.488988
vt 0.346827 0.434693
vt 0.396959 0.459140
vt 0.572413 0.042733
vt 0.292575 0.042793
vt 0.156872 0.071520
vt 0.141676 0.171395
vt 0.130503 0.217141
vt 0.108840 0.290776
vt 0.097105 0.347521
vt 0.098839 0.413460
vt 0.103099 0.488692
vt 0.122299 0.517983
vn 0.003611 0.999746 0.022231
vn 0.016414 0.999864 0.001721
vn 0.006987 0.999774 -0.020098
vn 0.008991 0.999871 -0.013279
vn 0.004955 0.999865 0.015646
vn -0.013532 0.999242 0.036502
vn 0.066931 0.994955 0.074736
vn -0.008348 0.998599 0.052250
vn 0.061070 0.985516 0.158202
vn 0.028277 0.988980 0.145327
vn -0.024346 0.979595 0.199501
vn -0.046348 0.988093 0.146712
vn 0.983139 -0.000001 -0.182858
vn 0.983139 -0.000001 -0.182858
vn 0.989476 0.003419 -0.144660
vn 0.999836 0.015314 -0.009636
vn 0.085416 0.993650 0.073234
vn 0.218737 0.968994 0.114912
vn 0.320445 0.920989 0.221573
vn 0.180512 0.951497 0.249134
vn 0.180995 0.906116 0.382354
vn 0.435760 0.838351 0.327538
vn 0.102233 0.911467 0.398468
vn 0.321506 0.824945 0.464865
vn 0.007354 0.999965 0.004057
vn 0.000000 1.000000 0.000000
vn 0.000000 1.000000 0.000000
vn 0.006155 0.999978 0.002467
vn -0.050264 0.924834 0.377036
vn -0.044669 0.939056 0.340850
vn 0.178062 0.608595 0.773244
vn 0.041796 0.826813 0.560923
vn 0.956530 0.037153 0.289257
vn 0.686482 0.054990 0.725064
vn -0.018593 0.862727 0.505328
vn -0.025085 0.868323 0.495364
vn 0.116100 0.445716 0.887614
vn 0.031006 0.707584 0.705949
vn 0.460131 0.058749 0.885905
vn 0.460131 0.058749 0.885905
vn -0.009078 0.999297 0.036368
vn 0.001593 0.999867 0.016212
vn 0.006568 0.999869 -0.014778
vn -0.005115 0.999894 0.013621
vn 0.018185 -0.999489 0.026304
vn 0.018185 -0.999489 0.026304
vn 0.018185 -0.999489 0.026304
vn 0.018185 -0.999489 0.026304
vn -0.000629 0.996212 -0.086953
vn 0.022742 0.992400 -0.120932
vn 0.059722 0.995632 -0.071768
vn 0.012192 0.997737 -0.066129
vn 0.980710 0.089752 0.173647
vn 0.980710 0.089752 0.173647
vn 0.889071 0.023558 0.457162
vn 0.938659 0.062777 0.339084
vn 0.023050 0.991965 -0.124399
vn 0.024841 0.987117 -0.158058
vn 0.091011 0.995406 -0.029718
vn 0.050714 0.998483 -0.021432
vn 0.776745 -0.026774 0.629246
vn 0.734818 -0.006074 0.678237
vn -0.051533 -0.084310 0.995106
vn -0.034756 -0.054265 0.997922
vn -0.036684 -0.057717 0.997659
vn -0.051533 -0.084310 0.995106
vn 0.793428 -0.035504 0.607627
vn 0.793428 -0.035504 0.607627
vn 0.004596 0.999977 0.005043
vn 0.000000 1.000000 0.000000
vn 0.000000 1.000000 0.000000
vn 0.009897 0.999926 0.007041
vn 0.046418 0.997047 0.061177
vn 0.084464 0.992165 0.092056
vn 0.124423 0.976150 0.177906
vn 0.159173 0.953947 0.254261
vn 0.157702 0.945536 0.284768
vn 0.140856 0.911980 0.385295
vn 0.075554 0.934481 0.347902
vn 0.061909 0.918104 0.391476
vn -0.019221 0.899088 0.437345
vn 0.021778 0.868361 0.495455
vn -0.029654 0.850712 0.524795
vn 0.005570 0.770159 0.637827
vn -0.003351 0.999143 -0.041257
vn -0.009977 0.999438 -0.032013
vn -0.010278 0.997591 -0.068611
vn -0.005194 0.998286 -0.058296
vn 0.015205 0.997630 -0.067111
vn 0.015205 0.997630 -0.067111
vn 0.004804 0.999792 -0.019840
vn -0.011079 0.999674 -0.023019
vn -0.012938 0.999652 -0.023004
vn 0.003941 0.999787 -0.020248
vn 0.051854 0.997994 0.036324
vn 0.049849 0.998224 0.032622
vn 0.124669 0.977382 0.170825
vn 0.138393 0.970793 0.195982
vn 0.149702 0.947121 0.283815
vn 0.136827 0.942573 0.304687
vn 0.082700 0.935093 0.344619
vn 0.061749 0.935564 0.347717
vn -0.002954 0.909399 0.415915
vn -0.008767 0.893485 0.449007
vn -0.018686 0.863389 0.504193
vn -0.018686 0.863389 0.504193
vn -0.003241 0.999639 -0.026683
vn -0.009558 0.999872 -0.012809
vn -0.009558 0.999872 -0.012809
vn -0.002740 0.999610 -0.027784
vn 0.015209 0.997626 -0.067163
vn 0.015209 0.997626 -0.067163
vn 0.011968 0.999838 -0.013448
vn -0.016843 -0.022198 0.999612
vn -0.016843 -0.022198 0.999612
vn 0.009824 0.999604 -0.026384
vn 0.003658 0.999737 -0.022652
vn 0.000000 1.000000 0.000000
vn 0.002966 0.999988 0.003872
vn 0.053905 0.998544 -0.001854
vn 0.037861 0.997898 0.052586
vn 0.160009 0.980180 0.116812
vn 0.134152 0.971456 0.195643
vn 0.080488 0.974286 0.210446
vn 0.132831 0.943862 0.302456
vn -0.030992 0.963976 0.264178
vn 0.039261 0.938766 0.342310
vn -0.040456 0.902314 0.429178
vn -0.028831 0.890675 0.453726
vn -0.015435 0.858859 0.511979
vn -0.031731 0.858174 0.512378
vn 0.008802 0.999637 -0.025483
vn -0.010327 0.999714 -0.021551
vn -0.010327 0.999714 -0.021551
vn -0.002808 0.999260 -0.038376
vn 0.021960 0.993231 -0.114065
vn 0.016000 0.996635 -0.080394
vn -0.109532 -0.026608 -0.993627
vn -0.109532 -0.026608 -0.993627
vn -0.109532 -0.026608 -0.993627
vn -0.109532 -0.026608 -0.993627
vn -0.999863 0.014692 0.007656
vn -0.999863 0.014692 0.007656
vn 0.110423 0.024772 0.993576
vn 0.110423 0.024772 0.993576
vn 0.110423 0.024772 0.993576
vn 0.110423 0.024772 0.993576
vn 0.343714 0.005330 -0.939059
vn 0.343714 0.005330 -0.939059
vn 0.343714 0.005330 -0.939059
vn 0.343714 0.005330 -0.939059
vn -0.333567 -0.000125 0.942726
vn -0.333568 -0.000125 0.942726
vn -0.333567 -0.000125 0.942726
vn -0.333567 -0.000125 0.942726
vn 0.838347 0.015819 -0.544908
vn 0.838347 0.015819 -0.544908
vn 0.838347 0.015819 -0.544908
vn 0.838347 0.015819 -0.544908
vn -0.837466 -0.014336 0.546302
vn -0.837466 -0.014336 0.546302
vn -0.837466 -0.014336 0.546302
vn -0.837466 -0.014336 0.546302
vn 0.959964 0.000916 -0.280122
vn 0.922710 0.002543 -0.385486
vn 0.922710 0.002543 -0.385486
vn 0.949771 0.001419 -0.312942
vn -0.922432 -0.011745 0.385980
vn -0.957236 -0.012423 0.289040
vn -0.946038 -0.012197 0.323827
vn -0.922432 -0.011745 0.385980
vn 0.989427 -0.001518 -0.145023
vn 0.983881 -0.000847 -0.178823
vn -0.990043 -0.014595 0.140005
vn -0.983655 -0.013812 0.179531
vn 0.999824 -0.001199 0.018711
vn 0.999569 -0.001951 -0.029285
vn -0.999155 -0.008970 -0.040123
vn -0.999882 -0.012059 0.009492
vn 0.986779 0.084827 0.138104
vn 0.989443 0.068855 0.127518
vn -0.988023 -0.058161 -0.142927
vn -0.989770 -0.047793 -0.134426
vn 0.994976 0.072892 0.068629
vn 0.984312 0.105140 0.141691
vn -0.997335 -0.008942 -0.072403
vn -0.987639 -0.064050 -0.143061
vn 0.999235 0.037719 -0.010361
vn 0.999235 0.037719 -0.010361
vn -0.998781 0.049282 0.002785
vn -0.998781 0.049282 0.002785
vn -0.053853 0.839235 0.541096
vn -0.053853 0.839235 0.541096
vn -0.053853 0.839235 0.541096
vn -0.053853 0.839235 0.541096
vn 0.006546 0.999955 0.006854
s 1
g pCube38
usemtl initialShadingGroup
f 1/43/1 2/44/2 104/104/3 105/105/4
f 1/43/1 105/105/4 106/106/5 5/49/6
f 5/49/6 106/106/5 107/107/7 7/80/8
f 7/80/8 107/107/7 108/108/9 10/82/10
f 10/82/10 108/108/9 109/109/11 13/84/12
s 2
f 11/1/13 9/2/14 12/3/15 14/4/16
s 3
f 15/59/17 6/96/18 8/92/19 16/91/20
f 17/88/21 16/91/20 8/92/19 11/1/22
f 18/87/23 17/88/21 11/1/22 14/4/24
f 20/51/25 19/52/26 4/53/27 3/54/28
f 15/59/17 20/51/25 3/54/28 6/96/18
s 1
f 13/84/12 109/109/11 110/110/29 21/86/30
s 3
f 18/87/23 14/4/24 24/6/31 22/93/32
s 2
f 14/4/16 12/3/15 23/5/33 24/6/34
s 1
f 21/86/30 110/110/29 111/111/35 26/61/36
s 3
f 22/93/32 24/6/31 29/7/37 27/70/38
s 2
f 24/6/34 23/5/33 28/8/39 29/7/40
s 5
f 26/61/41 111/111/42 112/112/43 31/64/44
s off
f 28/8/45 25/66/46 30/67/47 33/9/48
s 6
f 27/70/49 29/7/50 34/10/51 32/71/52
s 7
f 29/7/53 28/8/54 33/9/55 34/10/56
s 5
f 31/64/44 112/112/43 113/113/57 35/97/58
s 6
f 32/71/52 34/10/51 38/74/59 36/73/60
s 7
f 34/10/56 33/9/55 37/98/61 38/74/62
s 8
f 33/9/63 30/67/64 39/101/65 40/99/66
s 7
f 37/98/61 33/9/55 40/99/67 41/100/68
s 3
f 43/57/69 42/12/70 62/56/71 63/55/72
f 44/60/73 43/57/69 63/55/72 64/58/74
f 45/35/75 44/60/73 64/58/74 65/94/76
f 46/29/77 45/35/75 65/94/76 66/90/78
f 47/30/79 46/29/77 66/90/78 67/89/80
f 48/33/81 47/30/79 67/89/80 68/95/82
f 49/37/83 48/33/81 68/95/82 69/68/84
s 6
f 50/39/85 49/37/86 69/68/87 70/69/88
f 51/41/89 50/39/85 70/69/88 71/72/90
s 9
f 85/75/91 84/14/92 86/13/93 87/76/94
f 88/77/95 85/75/91 87/76/94 89/78/96
f 90/20/97 88/77/95 89/78/96 91/36/98
f 92/17/99 90/20/97 91/36/98 93/32/100
f 94/18/101 92/17/99 93/32/100 95/31/102
f 96/22/103 94/18/101 95/31/102 97/34/104
f 98/24/105 96/22/103 97/34/104 99/38/106
s 10
f 100/26/107 98/24/108 99/38/109 101/40/110
f 102/28/111 100/26/107 101/40/110 103/42/112
s 3
f 63/55/72 62/56/71 19/52/26 20/51/25
f 64/58/74 63/55/72 20/51/25 15/59/17
f 65/94/76 64/58/74 15/59/17 16/91/20
f 66/90/78 65/94/76 16/91/20 17/88/21
f 67/89/80 66/90/78 17/88/21 18/87/23
f 68/95/82 67/89/80 18/87/23 22/93/32
f 69/68/84 68/95/82 22/93/32 27/70/38
s 6
f 70/69/88 69/68/87 27/70/49 32/71/52
f 71/72/113 70/69/88 32/71/52 36/73/60
s 8
f 30/67/64 73/102/114 72/103/115 39/101/65
s 1
f 75/46/116 74/45/117 52/11/118 53/47/119
f 76/48/120 75/46/116 53/47/119 54/50/121
f 77/79/122 76/48/120 54/50/121 55/19/123
f 78/81/124 77/79/122 55/19/123 56/16/125
f 79/83/126 78/81/124 56/16/125 57/15/127
f 80/85/128 79/83/126 57/15/127 58/21/129
f 81/62/130 80/85/128 58/21/129 59/23/131
s 5
f 82/63/132 81/62/133 59/23/134 60/25/135
f 83/65/136 82/63/132 60/25/135 61/27/137
s off
f 53/47/138 52/11/139 84/14/140 85/75/141
s 9
f 52/11/142 42/12/143 86/13/93 84/14/92
s off
f 42/12/144 43/57/145 87/76/146 86/13/147
f 54/50/148 53/47/149 85/75/150 88/77/151
f 43/57/152 44/60/153 89/78/154 87/76/155
f 55/19/156 54/50/157 88/77/158 90/20/159
f 44/60/160 45/35/161 91/36/162 89/78/163
s 12
f 56/16/164 55/19/165 90/20/166 92/17/167
s 13
f 45/35/168 46/29/169 93/32/170 91/36/171
s 12
f 57/15/172 56/16/164 92/17/167 94/18/173
s 13
f 46/29/169 47/30/174 95/31/175 93/32/170
s 12
f 58/21/176 57/15/172 94/18/173 96/22/177
s 13
f 47/30/174 48/33/178 97/34/179 95/31/175
s 12
f 59/23/180 58/21/176 96/22/177 98/24/181
s 13
f 48/33/178 49/37/182 99/38/183 97/34/179
s 12
f 60/25/184 59/23/180 98/24/181 100/26/185
s 13
f 49/37/182 50/39/186 101/40/187 99/38/183
s 12
f 61/27/188 60/25/184 100/26/185 102/28/189
s 13
f 50/39/186 51/41/190 103/42/191 101/40/187
s off
f 51/41/192 61/27/193 102/28/194 103/42/195
s 1
f 105/105/4 104/104/3 74/45/117 75/46/116
f 106/106/5 105/105/4 75/46/116 76/48/120
f 107/107/7 106/106/5 76/48/120 77/79/122
f 108/108/9 107/107/7 77/79/122 78/81/124
f 109/109/11 108/108/9 78/81/124 79/83/126
f 110/110/29 109/109/11 79/83/126 80/85/128
f 111/111/35 110/110/29 80/85/128 81/62/130
s 5
f 112/112/43 111/111/42 81/62/196 82/63/132
f 113/113/57 112/112/43 82/63/132 83/65/136
