# This file uses centimeters as units for non-parametric coordinates.

mtllib Final_Road.mtl
g default
v 21.896528 -18.678082 -46.258778
v 117.622177 -20.200003 -63.698761
v 37.943924 -20.200001 -156.744263
v 112.405205 -20.200003 -178.846680
v -48.537216 -19.641155 -38.780354
v 29.072161 -18.422098 -147.187988
v -57.531929 -18.528767 -73.208862
v 12.570436 -14.802139 -146.172531
v 5.313829 -18.375902 -153.829376
v -54.266636 -15.981490 -93.517731
v 5.313829 -7.946963 -153.829376
v 3.417071 -12.548710 -164.027298
v -55.520424 -12.607895 -128.681427
v 3.417103 -2.119774 -164.027298
v 23.545109 -18.717783 -138.801422
v 8.880759 -15.375302 -139.742645
v 2.824004 -8.606236 -147.266113
v -1.338662 -2.705800 -158.907166
v 112.492668 -20.200003 -168.199127
v 35.908958 -20.200001 -144.673523
v -59.873791 -8.041839 -149.228821
v -1.685924 1.290019 -166.613190
v 4.393039 -6.199918 -168.437210
v 3.807643 2.365776 -168.628769
v -2.910109 -0.636157 -170.707123
v -54.825386 4.679153 -172.220718
v 2.198449 6.865240 -170.677689
v 7.453227 0.616123 -170.406235
v 6.867863 6.996839 -170.597763
v -5.147017 -0.268220 -195.298538
v -49.491745 5.887766 -196.511581
v 0.312815 4.219500 -194.622040
v 11.665831 -0.972809 -193.576080
v 11.344034 3.809849 -194.031113
v -40.307644 4.088344 -205.703049
v 0.823954 4.525225 -202.287201
v 20.657633 -2.354320 -204.176895
v 21.385666 2.010427 -204.080063
v -3.669825 -17.016085 -195.729507
v 13.521302 -15.661220 -195.635956
v 19.495729 -11.621140 -204.422394
v 116.271194 -20.200003 -105.029381
v 23.939751 -20.200001 -94.743706
v -6.021898 -19.475416 -105.354240
v -15.407631 -16.487087 -119.661758
v -20.622700 -12.178236 -132.000351
v -24.447788 -6.207638 -147.811661
v -25.474178 -0.934335 -160.974777
v -24.443098 5.552371 -171.568542
v -20.706947 4.923584 -195.419510
v -20.746790 4.296110 -204.078583
v 116.279610 -20.200003 -104.006683
v 23.732304 -20.200001 -93.798981
v -6.474778 -19.493050 -104.851227
v -15.836800 -16.517281 -119.202827
v -21.044083 -12.226576 -131.624893
v -24.749279 -5.952425 -147.650604
v -25.818491 -0.990364 -160.870590
v -24.940378 5.523482 -171.582596
v -21.232214 4.941178 -195.439453
v -21.285822 4.290385 -204.123337
v 116.236160 -20.200003 -109.294197
v 24.804785 -20.200001 -98.683266
v -4.133373 -19.553005 -107.451843
v -13.617933 -16.512316 -121.575577
v -19.127787 -11.976645 -133.513626
v -23.190615 -5.958940 -148.483322
v -24.038315 -0.700686 -161.409225
v -22.369331 5.672847 -171.509872
v -18.516556 4.850214 -195.336411
v -18.498981 4.319985 -203.891907
v -17.758356 -18.166014 -195.908478
v -13.837276 0.882320 -195.503372
v 116.317703 -20.200003 -99.369072
v 22.791645 -20.200001 -89.515038
v -8.528385 -19.573021 -102.570259
v -17.782970 -16.654188 -117.121735
v -22.606771 -12.445789 -129.991913
v -26.116388 -6.222864 -146.920242
v -27.379864 -1.244437 -160.398193
v -27.195433 5.392475 -171.646393
v -23.614065 5.020961 -195.529800
v -23.730116 4.264422 -204.326324
v 116.266472 -21.070545 -103.976181
v 23.774851 -21.004017 -93.787880
v 116.259354 -21.070545 -104.982132
v 23.953142 -21.049080 -94.748253
v -6.429070 -20.318253 -104.839272
v -5.997617 -20.303259 -105.336586
v -15.835615 -17.382820 -119.191719
v -15.398308 -17.357157 -119.672455
v -21.039982 -13.192289 -131.635422
v -20.608372 -13.151199 -131.989212
v -24.753006 -6.949050 -147.639267
v -24.433016 -6.898357 -147.792068
v -25.817972 -1.926481 -160.855530
v -25.461586 -1.878856 -160.975952
v -24.942101 4.329761 -171.588516
v -24.445122 4.354317 -171.560043
v -21.176695 4.094075 -194.313675
v -20.730221 4.079119 -194.296738
v -21.255520 3.507524 -202.906113
v -20.797348 3.512390 -202.868073
v 117.535759 -20.200005 -74.216599
v 24.171751 -18.678082 -56.620613
v -23.236340 -19.306267 -61.033669
v -31.790428 -17.295525 -93.830650
v -36.324314 -14.111530 -108.681473
v -44.348770 -10.936539 -133.305664
v -47.838371 -6.290891 -152.217300
v -46.233414 5.003677 -171.405502
v -42.789364 5.663262 -196.257294
v -36.014023 4.133948 -205.346481
vt 0.268113 0.355736
vt 0.296799 0.343662
vt 0.291807 0.379474
vt 0.261730 0.393465
vt 0.280109 0.399616
vt 0.258769 0.414331
vt 0.258791 0.429417
vt 0.272381 0.421981
vt 0.292564 0.495787
vt 0.276224 0.499611
vt 0.586909 0.129033
vt 0.587971 0.137316
vt 0.587684 0.134677
vt 0.587101 0.131675
vt 0.168923 0.337839
vt 0.180375 0.285718
vt 0.183318 0.285622
vt 0.171958 0.337251
vt 0.195607 0.245540
vt 0.198156 0.246078
vt 0.163976 0.380328
vt 0.166634 0.379212
vt 0.162933 0.417860
vt 0.166314 0.416856
vt 0.167380 0.490185
vt 0.170021 0.486862
vt 0.167720 0.515544
vt 0.169036 0.510389
vt 0.187076 0.288457
vt 0.174757 0.338897
vt 0.172943 0.337764
vt 0.184672 0.286678
vt 0.170270 0.380988
vt 0.167709 0.379653
vt 0.201619 0.249150
vt 0.199553 0.247479
vt 0.171225 0.417647
vt 0.167829 0.416909
vt 0.174183 0.490146
vt 0.171384 0.486919
vt 0.170771 0.515647
vt 0.170162 0.510257
vt 0.279330 0.012647
vt 0.565656 0.008953
vt 0.584160 0.115231
vt 0.303372 0.142163
vt 0.308373 0.154460
vt 0.215159 0.193289
vt 0.072759 0.014042
vt 0.222100 0.199610
vt 0.370805 0.306133
vt 0.616149 0.326029
vt 0.622904 0.357551
vt 0.384467 0.340495
vt 0.315456 0.173361
vt 0.590496 0.150059
vt 0.310779 0.162065
vt 0.233153 0.210448
vt 0.328811 0.294989
vt 0.226839 0.204699
vt 0.072717 0.413666
vt 0.156142 0.417463
vt 0.160311 0.490078
vt 0.082538 0.487819
vt 0.160021 0.516234
vt 0.296268 0.408771
vt 0.333290 0.458383
vt 0.177446 0.418022
vt 0.180763 0.490575
vt 0.248001 0.425940
vt 0.239305 0.495301
vt 0.177705 0.515866
vt 0.236659 0.516434
vt 0.285987 0.542048
vt 0.309136 0.156788
vt 0.310202 0.159558
vt 0.223973 0.201239
vt 0.225416 0.202619
vt 0.189433 0.239486
vt 0.058156 0.117582
vt 0.175454 0.280783
vt 0.073680 0.175645
vt 0.164727 0.335380
vt 0.075345 0.276460
vt 0.159216 0.378446
vt 0.061315 0.336301
vt 0.245931 0.377005
vt 0.259502 0.336032
vt 0.178622 0.341165
vt 0.191788 0.293003
vt 0.281352 0.305120
vt 0.294761 0.323592
vt 0.242404 0.403787
vt 0.207482 0.254576
vt 0.174677 0.382580
vt 0.350132 0.317620
vt 0.108785 0.518124
vt 0.297329 0.541187
vt 0.336344 0.520738
vt 0.321652 0.543841
vt 0.366279 0.489513
vt 0.346682 0.435131
vt 0.396769 0.459739
vt 0.571937 0.040203
vt 0.291250 0.042340
vt 0.155426 0.072601
vt 0.141695 0.172393
vt 0.130851 0.217959
vt 0.109309 0.291203
vt 0.097398 0.347895
vt 0.098856 0.413343
vt 0.102840 0.488557
vt 0.121945 0.517898
vn -0.001856 0.999998 -0.000046
vn 0.016414 0.999864 0.001721
vn 0.006987 0.999774 -0.020098
vn 0.004355 0.999859 -0.016219
vn 0.006019 0.999930 0.010165
vn 0.000023 0.999569 0.029371
vn 0.077462 0.993451 0.083988
vn 0.013408 0.998177 0.058846
vn 0.061070 0.985516 0.158202
vn 0.028277 0.988980 0.145327
vn -0.024298 0.979143 0.201715
vn -0.048363 0.987708 0.148638
vn 0.983139 -0.000001 -0.182858
vn 0.983139 -0.000001 -0.182858
vn 0.989476 0.003419 -0.144660
vn 0.999836 0.015314 -0.009636
vn 0.080098 0.994162 0.072291
vn 0.216968 0.968067 0.125585
vn 0.319539 0.917479 0.236914
vn 0.182041 0.950106 0.253300
vn 0.183093 0.904030 0.386272
vn 0.435002 0.837591 0.330476
vn 0.102233 0.911467 0.398468
vn 0.321506 0.824945 0.464865
vn 0.006837 0.999969 0.003918
vn 0.000000 1.000000 0.000000
vn 0.000000 1.000000 0.000000
vn 0.006090 0.999978 0.002644
vn -0.050542 0.924494 0.377832
vn -0.053649 0.938296 0.341647
vn 0.178062 0.608595 0.773244
vn 0.041796 0.826813 0.560923
vn 0.956530 0.037153 0.289257
vn 0.686482 0.054990 0.725064
vn -0.020698 0.865556 0.500384
vn -0.035982 0.870885 0.490169
vn 0.116100 0.445716 0.887614
vn 0.031006 0.707584 0.705949
vn 0.460131 0.058749 0.885905
vn 0.460131 0.058749 0.885905
vn -0.009078 0.999297 0.036368
vn 0.001593 0.999867 0.016212
vn 0.006568 0.999869 -0.014778
vn -0.005115 0.999894 0.013621
vn 0.018185 -0.999489 0.026304
vn 0.018185 -0.999489 0.026304
vn 0.018185 -0.999489 0.026304
vn 0.018185 -0.999489 0.026304
vn -0.000629 0.996212 -0.086953
vn 0.022742 0.992400 -0.120932
vn 0.059722 0.995632 -0.071768
vn 0.012192 0.997737 -0.066129
vn 0.980710 0.089752 0.173647
vn 0.980710 0.089752 0.173647
vn 0.889071 0.023558 0.457162
vn 0.938659 0.062777 0.339084
vn 0.023050 0.991965 -0.124399
vn 0.024841 0.987117 -0.158058
vn 0.091011 0.995406 -0.029718
vn 0.050714 0.998483 -0.021432
vn 0.776745 -0.026774 0.629246
vn 0.734818 -0.006074 0.678237
vn -0.051533 -0.084310 0.995106
vn -0.034756 -0.054265 0.997922
vn -0.036684 -0.057717 0.997659
vn -0.051533 -0.084310 0.995106
vn 0.793428 -0.035504 0.607627
vn 0.793428 -0.035504 0.607627
vn 0.005789 0.999983 -0.000469
vn 0.000000 1.000000 0.000000
vn 0.000000 1.000000 0.000000
vn 0.008817 0.999944 0.005926
vn 0.065608 0.997204 0.035768
vn 0.083564 0.992743 0.086473
vn 0.167532 0.973829 0.153591
vn 0.164722 0.952722 0.255320
vn 0.180708 0.943468 0.277874
vn 0.145227 0.909685 0.389079
vn 0.075554 0.934481 0.347902
vn 0.061909 0.918104 0.391476
vn -0.019221 0.899088 0.437345
vn 0.021778 0.868361 0.495455
vn -0.029654 0.850712 0.524795
vn 0.005570 0.770159 0.637827
vn -0.003351 0.999143 -0.041257
vn -0.009977 0.999438 -0.032013
vn -0.010278 0.997591 -0.068611
vn -0.005194 0.998286 -0.058296
vn 0.015205 0.997630 -0.067111
vn 0.015205 0.997630 -0.067111
vn 0.004804 0.999792 -0.019840
vn -0.002076 0.999731 -0.023093
vn -0.002076 0.999731 -0.023093
vn 0.003941 0.999787 -0.020248
vn 0.051854 0.997994 0.036324
vn 0.049849 0.998224 0.032622
vn 0.124669 0.977382 0.170825
vn 0.138393 0.970793 0.195982
vn 0.149702 0.947121 0.283815
vn 0.136827 0.942573 0.304687
vn 0.082700 0.935093 0.344619
vn 0.061749 0.935564 0.347717
vn -0.002954 0.909399 0.415915
vn -0.008767 0.893485 0.449007
vn -0.018686 0.863389 0.504193
vn -0.018686 0.863389 0.504193
vn -0.003241 0.999639 -0.026683
vn -0.009558 0.999872 -0.012809
vn -0.009558 0.999872 -0.012809
vn -0.002740 0.999610 -0.027784
vn 0.015209 0.997626 -0.067163
vn 0.015209 0.997626 -0.067163
vn 0.011968 0.999838 -0.013448
vn -0.016843 -0.022198 0.999612
vn -0.016843 -0.022198 0.999612
vn 0.004517 0.999734 -0.022609
vn 0.003658 0.999737 -0.022652
vn 0.000000 1.000000 0.000000
vn 0.002966 0.999988 0.003872
vn 0.047921 0.998797 0.010375
vn 0.037861 0.997898 0.052586
vn 0.162805 0.978746 0.124706
vn 0.134152 0.971456 0.195643
vn 0.080488 0.974286 0.210446
vn 0.132831 0.943862 0.302456
vn -0.025712 0.963276 0.267279
vn 0.039261 0.938766 0.342310
vn -0.034998 0.903285 0.427611
vn -0.028831 0.890675 0.453726
vn -0.011913 0.861579 0.507484
vn -0.031731 0.858174 0.512378
vn 0.008802 0.999637 -0.025483
vn -0.010327 0.999714 -0.021551
vn -0.010327 0.999714 -0.021551
vn -0.002808 0.999260 -0.038376
vn 0.021960 0.993231 -0.114065
vn 0.016000 0.996635 -0.080394
vn -0.109532 -0.026608 -0.993627
vn -0.109532 -0.026608 -0.993627
vn -0.109532 -0.026608 -0.993627
vn -0.109532 -0.026608 -0.993627
vn 0.110423 0.024772 0.993576
vn 0.110423 0.024772 0.993576
vn 0.110423 0.024772 0.993576
vn 0.110423 0.024772 0.993576
vn 0.343714 0.005330 -0.939059
vn 0.343714 0.005330 -0.939059
vn 0.343714 0.005330 -0.939059
vn 0.343714 0.005330 -0.939059
vn -0.333567 -0.000125 0.942726
vn -0.333568 -0.000125 0.942726
vn -0.333567 -0.000125 0.942726
vn -0.333567 -0.000125 0.942726
vn 0.838347 0.015819 -0.544908
vn 0.838347 0.015819 -0.544908
vn 0.838347 0.015819 -0.544908
vn 0.838347 0.015819 -0.544908
vn -0.837466 -0.014336 0.546302
vn -0.837466 -0.014336 0.546302
vn -0.837466 -0.014336 0.546302
vn -0.837466 -0.014336 0.546302
vn 0.959964 0.000916 -0.280122
vn 0.922710 0.002543 -0.385486
vn 0.922710 0.002543 -0.385486
vn 0.949771 0.001419 -0.312942
vn -0.922432 -0.011745 0.385980
vn -0.957236 -0.012423 0.289040
vn -0.946038 -0.012197 0.323827
vn -0.922432 -0.011745 0.385980
vn 0.989427 -0.001518 -0.145023
vn 0.983881 -0.000847 -0.178823
vn -0.990043 -0.014595 0.140005
vn -0.983655 -0.013812 0.179531
vn 0.999824 -0.001199 0.018711
vn 0.999569 -0.001951 -0.029285
vn -0.999155 -0.008970 -0.040123
vn -0.999882 -0.012059 0.009492
vn 0.986779 0.084827 0.138104
vn 0.989443 0.068855 0.127518
vn -0.988023 -0.058161 -0.142927
vn -0.989770 -0.047793 -0.134426
vn 0.994976 0.072892 0.068629
vn 0.984312 0.105140 0.141691
vn -0.997335 -0.008942 -0.072403
vn -0.987639 -0.064050 -0.143061
vn 0.999235 0.037719 -0.010361
vn 0.999235 0.037719 -0.010361
vn -0.998781 0.049282 0.002785
vn -0.998781 0.049282 0.002785
vn -0.053853 0.839235 0.541096
vn -0.053853 0.839235 0.541096
vn -0.053853 0.839235 0.541096
vn -0.053853 0.839235 0.541096
vn 0.006546 0.999955 0.006854
s 1
g pCube38
usemtl initialShadingGroup
f 1/43/1 2/44/2 104/104/3 105/105/4
f 1/43/1 105/105/4 106/106/5 5/49/6
f 5/49/6 106/106/5 107/107/7 7/80/8
f 7/80/8 107/107/7 108/108/9 10/82/10
f 10/82/10 108/108/9 109/109/11 13/84/12
s 2
f 11/1/13 9/2/14 12/3/15 14/4/16
s 3
f 15/59/17 6/96/18 8/92/19 16/91/20
f 17/88/21 16/91/20 8/92/19 11/1/22
f 18/87/23 17/88/21 11/1/22 14/4/24
f 20/51/25 19/52/26 4/53/27 3/54/28
f 15/59/17 20/51/25 3/54/28 6/96/18
s 1
f 13/84/12 109/109/11 110/110/29 21/86/30
s 3
f 18/87/23 14/4/24 24/6/31 22/93/32
s 2
f 14/4/16 12/3/15 23/5/33 24/6/34
s 1
f 21/86/30 110/110/29 111/111/35 26/61/36
s 3
f 22/93/32 24/6/31 29/7/37 27/70/38
s 2
f 24/6/34 23/5/33 28/8/39 29/7/40
s 5
f 26/61/41 111/111/42 112/112/43 31/64/44
s off
f 28/8/45 25/66/46 30/67/47 33/9/48
s 6
f 27/70/49 29/7/50 34/10/51 32/71/52
s 7
f 29/7/53 28/8/54 33/9/55 34/10/56
s 5
f 31/64/44 112/112/43 113/113/57 35/97/58
s 6
f 32/71/52 34/10/51 38/74/59 36/73/60
s 7
f 34/10/56 33/9/55 37/98/61 38/74/62
s 8
f 33/9/63 30/67/64 39/101/65 40/99/66
s 7
f 37/98/61 33/9/55 40/99/67 41/100/68
s 3
f 43/57/69 42/12/70 62/56/71 63/55/72
f 44/60/73 43/57/69 63/55/72 64/58/74
f 45/35/75 44/60/73 64/58/74 65/94/76
f 46/29/77 45/35/75 65/94/76 66/90/78
f 47/30/79 46/29/77 66/90/78 67/89/80
f 48/33/81 47/30/79 67/89/80 68/95/82
f 49/37/83 48/33/81 68/95/82 69/68/84
s 6
f 50/39/85 49/37/86 69/68/87 70/69/88
f 51/41/89 50/39/85 70/69/88 71/72/90
s 9
f 85/75/91 84/14/92 86/13/93 87/76/94
f 88/77/95 85/75/91 87/76/94 89/78/96
f 90/20/97 88/77/95 89/78/96 91/36/98
f 92/17/99 90/20/97 91/36/98 93/32/100
f 94/18/101 92/17/99 93/32/100 95/31/102
f 96/22/103 94/18/101 95/31/102 97/34/104
f 98/24/105 96/22/103 97/34/104 99/38/106
s 10
f 100/26/107 98/24/108 99/38/109 101/40/110
f 102/28/111 100/26/107 101/40/110 103/42/112
s 3
f 63/55/72 62/56/71 19/52/26 20/51/25
f 64/58/74 63/55/72 20/51/25 15/59/17
f 65/94/76 64/58/74 15/59/17 16/91/20
f 66/90/78 65/94/76 16/91/20 17/88/21
f 67/89/80 66/90/78 17/88/21 18/87/23
f 68/95/82 67/89/80 18/87/23 22/93/32
f 69/68/84 68/95/82 22/93/32 27/70/38
s 6
f 70/69/88 69/68/87 27/70/49 32/71/52
f 71/72/113 70/69/88 32/71/52 36/73/60
s 8
f 30/67/64 73/102/114 72/103/115 39/101/65
s 1
f 75/46/116 74/45/117 52/11/118 53/47/119
f 76/48/120 75/46/116 53/47/119 54/50/121
f 77/79/122 76/48/120 54/50/121 55/19/123
f 78/81/124 77/79/122 55/19/123 56/16/125
f 79/83/126 78/81/124 56/16/125 57/15/127
f 80/85/128 79/83/126 57/15/127 58/21/129
f 81/62/130 80/85/128 58/21/129 59/23/131
s 5
f 82/63/132 81/62/133 59/23/134 60/25/135
f 83/65/136 82/63/132 60/25/135 61/27/137
s off
f 53/47/138 52/11/139 84/14/140 85/75/141
f 42/12/142 43/57/143 87/76/144 86/13/145
f 54/50/146 53/47/147 85/75/148 88/77/149
f 43/57/150 44/60/151 89/78/152 87/76/153
f 55/19/154 54/50/155 88/77/156 90/20/157
f 44/60/158 45/35/159 91/36/160 89/78/161
s 12
f 56/16/162 55/19/163 90/20/164 92/17/165
s 13
f 45/35/166 46/29/167 93/32/168 91/36/169
s 12
f 57/15/170 56/16/162 92/17/165 94/18/171
s 13
f 46/29/167 47/30/172 95/31/173 93/32/168
s 12
f 58/21/174 57/15/170 94/18/171 96/22/175
s 13
f 47/30/172 48/33/176 97/34/177 95/31/173
s 12
f 59/23/178 58/21/174 96/22/175 98/24/179
s 13
f 48/33/176 49/37/180 99/38/181 97/34/177
s 12
f 60/25/182 59/23/178 98/24/179 100/26/183
s 13
f 49/37/180 50/39/184 101/40/185 99/38/181
s 12
f 61/27/186 60/25/182 100/26/183 102/28/187
s 13
f 50/39/184 51/41/188 103/42/189 101/40/185
s off
f 51/41/190 61/27/191 102/28/192 103/42/193
s 1
f 105/105/4 104/104/3 74/45/117 75/46/116
f 106/106/5 105/105/4 75/46/116 76/48/120
f 107/107/7 106/106/5 76/48/120 77/79/122
f 108/108/9 107/107/7 77/79/122 78/81/124
f 109/109/11 108/108/9 78/81/124 79/83/126
f 110/110/29 109/109/11 79/83/126 80/85/128
f 111/111/35 110/110/29 80/85/128 81/62/130
s 5
f 112/112/43 111/111/42 81/62/194 82/63/132
f 113/113/57 112/112/43 82/63/132 83/65/136
