# This file uses centimeters as units for non-parametric coordinates.

mtllib pyramid and stairs.mtl
g default
v 40.994563 -12.971514 -186.373474
v 68.896281 -12.959948 -191.360840
v 42.123363 39.689589 -190.795349
v 59.564571 39.662443 -198.238007
v 40.218669 39.683661 -201.449997
v 57.675166 39.699743 -208.910873
v 39.093867 -12.981874 -197.036377
v 60.486903 -12.967676 -200.762131
v 58.203395 39.662443 -197.634476
v 56.393138 39.699743 -208.306061
v 58.079875 -12.967676 -200.447601
v 66.454646 -12.942339 -190.906525
v 43.429820 39.638868 -191.352844
v 41.564372 39.678373 -202.049530
v 41.424190 -12.981874 -197.464874
v 43.368816 -12.971514 -186.803665
v 41.597316 -12.977930 -184.286301
v 43.896114 -12.974146 -184.950165
v 43.772121 42.004721 -190.322510
v 42.465663 42.055426 -189.765015
v 41.663783 42.062445 -202.078247
v 40.318095 42.113157 -201.478699
v 58.445766 42.027967 -196.575272
v 59.806926 42.027967 -197.178802
v 57.675166 42.054075 -208.910873
v 56.393138 42.054075 -208.306061
v 67.198695 -12.959826 -188.610748
v 69.497783 -12.977434 -189.273361
v 23.097911 -14.721506 -195.362198
v 84.765529 -13.506174 -220.617676
v 27.360042 7.089010 -197.177841
v 79.494624 8.275091 -218.566803
v 29.225337 7.089010 -199.967422
v 77.092815 8.275091 -220.195572
v 29.292270 8.629599 -199.891052
v 77.090404 9.522215 -220.195801
v 28.820102 8.629599 -198.904449
v 78.432902 9.522215 -219.243652
v 28.821818 10.463606 -198.918304
v 78.440425 11.649687 -219.237427
v 27.949351 10.463606 -197.377884
v 78.667659 11.649687 -218.267654
v 28.405376 12.517691 -197.583649
v 78.172435 13.703772 -218.107086
v 29.480464 12.517691 -199.101212
v 77.417995 13.703772 -218.346558
v 28.774493 14.278341 -197.691864
v 77.747905 15.464422 -217.942780
v 29.319751 17.252310 -197.935654
v 76.996181 18.598379 -217.654312
v 33.543346 17.894766 -206.923111
v 68.475185 18.898748 -221.370682
v 36.146251 40.371725 -209.736435
v 63.267909 39.668478 -219.200333
v 35.782603 40.371725 -208.932709
v 64.233302 39.668478 -218.849670
v 35.654933 41.669218 -209.040375
v 64.081660 40.931524 -218.859726
v 36.300906 41.669218 -209.908707
v 62.928279 40.931524 -219.077805
v 36.493236 43.399206 -210.121384
v 62.506160 42.695951 -218.910370
v 36.769076 45.798193 -210.425034
v 61.951411 44.871054 -218.672348
v 33.799647 46.296911 -229.362976
v 34.250896 43.758650 -229.264099
v 34.492763 42.028662 -229.290710
v 33.834514 42.028662 -228.724686
v 33.898349 40.731169 -228.670853
v 34.487056 40.731169 -228.902405
v 32.186778 18.396757 -227.612106
v 28.612727 17.925337 -226.134003
v 27.466334 14.278341 -225.644257
v 28.075908 12.517691 -225.944168
v 26.999507 12.517691 -225.397461
v 26.289455 10.463606 -225.184921
v 27.251536 10.463606 -225.748169
v 26.477290 8.584097 -225.828751
v 27.183696 8.482870 -225.976349
v 27.149531 7.089010 -226.019684
v 25.188083 7.089010 -224.780075
v 18.416820 -15.760752 -221.916946
v 79.627833 -15.153086 -247.108582
v 70.492366 8.314833 -242.704651
v 67.564723 8.270285 -241.881149
v 67.792873 9.454588 -242.162750
v 68.700206 9.454588 -242.179977
v 68.703975 11.056646 -242.275085
v 69.061534 11.056646 -243.409088
v 68.813930 13.110731 -243.328796
v 68.186732 13.110731 -242.926193
v 68.510402 14.871382 -242.435150
v 66.933833 18.598379 -241.983368
v 62.799708 18.898741 -240.273407
v 56.108974 40.379545 -237.775116
v 56.773509 40.379545 -238.001648
v 56.697688 41.659811 -238.006668
v 55.785701 41.659811 -237.983826
v 55.912700 43.407019 -238.033081
v 54.446315 45.833342 -236.818344
vt 0.375000 0.000000
vt 0.458333 0.000000
vt 0.458333 0.250000
vt 0.375000 0.250000
vt 0.458333 0.500000
vt 0.375000 0.500000
vt 0.375000 0.500000
vt 0.458333 0.500000
vt 0.458333 0.750000
vt 0.375000 0.750000
vt 0.458333 1.000000
vt 0.375000 1.000000
vt 0.625000 0.000000
vt 0.875000 0.000000
vt 0.875000 0.250000
vt 0.625000 0.250000
vt 0.125000 0.000000
vt 0.375000 0.000000
vt 0.375000 0.250000
vt 0.125000 0.250000
vt 0.541667 0.250000
vt 0.625000 0.250000
vt 0.625000 0.500000
vt 0.541667 0.500000
vt 0.541667 0.750000
vt 0.541667 0.500000
vt 0.625000 0.500000
vt 0.625000 0.750000
vt 0.541667 1.000000
vt 0.625000 1.000000
vt 0.541667 0.000000
vt 0.625000 0.000000
vt 0.458333 0.250000
vt 0.541667 0.250000
vt 0.458333 0.000000
vt 0.541667 0.000000
vt 0.375000 0.000000
vt 0.625000 0.000000
vt 0.625000 0.250000
vt 0.375000 0.250000
vt 0.375000 0.250000
vt 0.625000 0.250000
vt 0.625000 0.375000
vt 0.375000 0.375000
vt 0.375000 0.875000
vt 0.625000 0.875000
vt 0.625000 1.000000
vt 0.375000 1.000000
vt 0.750000 0.000000
vt 0.750000 0.250000
vt 0.250000 0.000000
vt 0.250000 0.250000
vt 0.625000 0.250000
vt 0.375000 0.250000
vt 0.625000 0.375000
vt 0.625000 0.375000
vt 0.375000 0.375000
vt 0.375000 0.375000
vt 0.625000 0.250000
vt 0.375000 0.250000
vt 0.625000 0.375000
vt 0.375000 0.375000
vt 0.625000 0.250000
vt 0.375000 0.250000
vt 0.625000 0.375000
vt 0.375000 0.375000
vt 0.625000 0.250000
vt 0.375000 0.250000
vt 0.625000 0.375000
vt 0.375000 0.375000
vt 0.625000 0.250000
vt 0.375000 0.250000
vt 0.625000 0.375000
vt 0.375000 0.375000
vt 0.625000 0.250000
vt 0.375000 0.250000
vt 0.625000 0.375000
vt 0.375000 0.375000
vt 0.625000 0.250000
vt 0.375000 0.250000
vt 0.625000 0.375000
vt 0.375000 0.375000
vt 0.625000 0.250000
vt 0.375000 0.250000
vt 0.625000 0.375000
vt 0.375000 0.375000
vt 0.625000 0.250000
vt 0.375000 0.250000
vt 0.625000 0.375000
vt 0.375000 0.375000
vt 0.625000 0.250000
vt 0.375000 0.250000
vt 0.625000 0.375000
vt 0.375000 0.375000
vt 0.625000 0.250000
vt 0.375000 0.250000
vt 0.625000 0.375000
vt 0.375000 0.375000
vt 0.625000 0.250000
vt 0.375000 0.250000
vt 0.625000 0.375000
vt 0.375000 0.375000
vt 0.625000 0.250000
vt 0.375000 0.250000
vt 0.625000 0.375000
vt 0.375000 0.375000
vt 0.625000 0.250000
vt 0.375000 0.250000
vt 0.625000 0.375000
vt 0.375000 0.375000
vt 0.625000 0.250000
vt 0.375000 0.250000
vt 0.625000 0.375000
vt 0.375000 0.375000
vn 0.320589 0.090830 0.942854
vn 0.320589 0.090830 0.942854
vn 0.320589 0.090830 0.942854
vn 0.320589 0.090830 0.942854
vn 0.037399 0.999299 -0.001866
vn 0.037399 0.999299 -0.001866
vn 0.037399 0.999299 -0.001866
vn 0.037399 0.999299 -0.001866
vn -0.273171 -0.076098 -0.958951
vn -0.278952 -0.112492 -0.953693
vn -0.278397 -0.112679 -0.953834
vn -0.268598 -0.078791 -0.960024
vn 0.000172 -1.000000 0.000941
vn 0.001171 -0.999999 0.001091
vn 0.001152 -0.999999 0.001019
vn 0.000184 -1.000000 0.000441
vn 0.898491 0.051969 -0.435905
vn 0.889137 0.037457 -0.456105
vn 0.895556 0.035200 -0.443555
vn 0.904240 0.051031 -0.423964
vn -0.983813 0.035780 0.175593
vn -0.981353 0.036725 0.188675
vn -0.980539 0.037774 0.192656
vn -0.983760 0.036622 0.175716
vn 0.000941 0.999997 0.002057
vn 0.000941 0.999997 0.002057
vn 0.000941 0.999997 0.002057
vn 0.000941 0.999997 0.002057
vn -0.275292 -0.120835 -0.953737
vn -0.275722 -0.120536 -0.953650
vn -0.245142 -0.150980 -0.957659
vn -0.238851 -0.155855 -0.958467
vn 0.000200 -0.999999 0.001551
vn 0.001067 -0.999999 0.001279
vn -0.002942 -0.999986 0.004352
vn -0.004417 -0.999989 0.001867
vn 0.321890 0.187863 0.927952
vn 0.321890 0.187863 0.927952
vn 0.321890 0.187863 0.927952
vn 0.321890 0.187863 0.927952
vn 0.000004 0.999994 0.003594
vn 0.000004 0.999994 0.003594
vn 0.000004 0.999994 0.003594
vn 0.000004 0.999994 0.003594
vn 0.262353 0.123006 0.957100
vn 0.262353 0.123006 0.957100
vn 0.262353 0.123006 0.957100
vn 0.262353 0.123006 0.957100
vn 0.000255 -0.999997 -0.002369
vn 0.000255 -0.999997 -0.002369
vn 0.962478 -0.024360 -0.270266
vn 0.967241 -0.030201 -0.252057
vn 0.972151 -0.036760 -0.231455
vn 0.962478 -0.024360 -0.270266
vn -0.964511 0.041853 0.260706
vn -0.972446 0.046393 0.228464
vn 0.983182 -0.054691 -0.174247
vn 0.983182 -0.054691 -0.174247
vn -0.406850 0.005911 -0.913476
vn -0.406850 0.005911 -0.913476
vn -0.982563 0.053306 0.178125
vn 0.984209 -0.010894 -0.176673
vn 0.955042 0.076048 -0.286550
vn -0.426664 0.000000 -0.904410
vn -0.426664 0.000000 -0.904410
vn -0.985375 0.012465 0.169945
vn -0.944982 -0.081946 0.316693
vn -0.954762 -0.064645 0.290259
vn -0.985375 0.012465 0.169945
vn -0.933324 -0.100433 0.344703
vn -0.933324 -0.100433 0.344703
vn -0.008680 -0.999948 -0.005314
vn -0.008680 -0.999948 -0.005314
vn 0.933408 0.118453 -0.338702
vn 0.379182 0.003782 0.925315
vn 0.379182 0.003782 0.925315
vn 0.379182 0.003782 0.925315
vn 0.379182 0.003782 0.925315
vn 0.039928 0.998808 0.028072
vn 0.039928 0.998808 0.028072
vn 0.039928 0.998808 0.028072
vn 0.039928 0.998808 0.028072
vn 0.033058 -0.998465 0.044442
vn 0.033058 -0.998465 0.044442
vn 0.033058 -0.998465 0.044442
vn 0.033058 -0.998465 0.044442
vn 0.907591 0.326595 -0.263846
vn 0.907591 0.326595 -0.263846
vn 0.907591 0.326595 -0.263846
vn 0.907591 0.326595 -0.263846
vn -0.961243 0.249717 0.116844
vn -0.961243 0.249717 0.116844
vn -0.961243 0.249717 0.116844
vn -0.961243 0.249717 0.116844
vn -0.014658 0.999891 0.001780
vn -0.019371 0.999807 0.003136
vn -0.017526 0.999841 0.003364
vn -0.015433 0.999879 0.001874
vn -0.009025 0.999950 0.004412
vn -0.009025 0.999950 0.004412
vn 0.000000 1.000000 0.000000
vn 0.000000 1.000000 0.000000
vn 0.390523 -0.034166 0.919959
vn 0.390523 -0.034166 0.919959
vn 0.390523 -0.034166 0.919959
vn 0.390523 -0.034166 0.919959
vn 0.910531 -0.130033 -0.392460
vn 0.910531 -0.130033 -0.392460
vn 0.910531 -0.130033 -0.392460
vn 0.910531 -0.130033 -0.392460
vn -0.996321 0.031069 0.079874
vn -0.996321 0.031069 0.079874
vn -0.996321 0.031069 0.079874
vn -0.996321 0.031069 0.079874
vn -0.007078 -0.999971 -0.002765
vn 0.010153 -0.999942 -0.003631
vn 0.012563 -0.999908 -0.005136
vn -0.000990 -0.999992 -0.003891
vn -0.001519 -0.999992 0.003656
vn -0.001519 -0.999992 0.003656
vn -0.076014 -0.997057 0.009999
vn -0.076014 -0.997057 0.009999
vn 0.379125 0.000895 0.925345
vn 0.379125 0.000895 0.925345
vn 0.379125 0.000895 0.925345
vn 0.379125 0.000895 0.925345
vn 0.920829 -0.012082 -0.389780
vn 0.920829 -0.012082 -0.389780
vn 0.920829 -0.012082 -0.389780
vn 0.920829 -0.012082 -0.389780
vn -0.976647 0.202807 0.070924
vn -0.976647 0.202807 0.070924
vn -0.976647 0.202807 0.070924
vn -0.976647 0.202807 0.070924
vn 0.017701 -0.999833 0.004550
vn 0.021849 -0.999709 0.010262
vn 0.026204 -0.999632 0.006958
vn 0.018733 -0.999813 0.004815
vn 0.006213 -0.999736 0.022119
vn 0.006213 -0.999736 0.022119
vn 0.000000 -1.000000 0.000000
vn 0.000000 -1.000000 0.000000
vn 0.380725 0.013803 0.924585
vn 0.380725 0.013803 0.924585
vn 0.380725 0.013803 0.924585
vn 0.380725 0.013803 0.924585
vn 0.917972 0.186503 -0.350062
vn 0.917972 0.186503 -0.350062
vn 0.917972 0.186503 -0.350062
vn 0.917972 0.186503 -0.350062
vn -0.959225 0.277656 0.052871
vn -0.959225 0.277656 0.052871
vn -0.959225 0.277656 0.052871
vn -0.959225 0.277656 0.052871
vn -0.013669 0.999904 -0.002494
vn -0.017513 0.999781 -0.011455
vn -0.019351 0.999762 -0.010047
vn -0.015006 0.999884 -0.002738
vn -0.002693 0.999736 -0.022805
vn -0.002693 0.999736 -0.022805
vn 0.000000 1.000000 -0.000000
vn 0.000000 1.000000 -0.000000
vn 0.354596 -0.397823 0.846167
vn 0.354596 -0.397823 0.846167
vn 0.378668 -0.162371 0.911179
vn 0.380146 -0.130519 0.915671
vn 0.933236 -0.084474 -0.349192
vn 0.933236 -0.084474 -0.349192
vn 0.933236 -0.084474 -0.349192
vn 0.933236 -0.084474 -0.349192
vn -0.928254 -0.369097 0.045954
vn -0.928254 -0.369097 0.045954
vn -0.928254 -0.369097 0.045954
vn -0.928254 -0.369097 0.045954
vn 0.382016 0.006153 0.924135
vn 0.382016 0.006153 0.924135
vn 0.874947 0.334672 -0.349945
vn 0.874948 0.334672 -0.349945
vn 0.874948 0.334672 -0.349945
vn 0.874948 0.334672 -0.349945
vn -0.967175 0.251294 0.037723
vn -0.967175 0.251294 0.037723
vn -0.967176 0.251294 0.037723
vn -0.967176 0.251294 0.037723
vn 0.001966 0.997304 0.073351
vn 0.001966 0.997304 0.073351
vn 0.001966 0.997304 0.073351
vn 0.001966 0.997304 0.073351
vn 0.050305 0.998566 -0.018313
vn 0.050305 0.998566 -0.018313
vn 0.050305 0.998566 -0.018313
vn 0.050305 0.998566 -0.018313
vn -0.104050 0.994170 0.028287
vn -0.104050 0.994170 0.028287
vn -0.104050 0.994170 0.028287
vn -0.104050 0.994170 0.028287
vn 0.359189 0.035496 0.932589
vn 0.359189 0.035496 0.932589
vn 0.359189 0.035496 0.932590
vn 0.359189 0.035496 0.932589
vn 0.907297 0.289227 -0.305222
vn 0.907297 0.289227 -0.305222
vn 0.907297 0.289227 -0.305222
vn 0.907297 0.289227 -0.305222
vn -0.990291 0.115446 0.077429
vn -0.990291 0.115446 0.077429
vn -0.990291 0.115446 0.077429
vn -0.990291 0.115446 0.077429
vn -0.021410 -0.999709 0.011156
vn -0.021410 -0.999709 0.011156
vn -0.021410 -0.999709 0.011156
vn -0.021410 -0.999709 0.011156
vn 0.002957 -0.999242 -0.038813
vn 0.002957 -0.999242 -0.038813
vn 0.002957 -0.999242 -0.038813
vn 0.002957 -0.999242 -0.038813
vn -0.018272 -0.999692 -0.016809
vn -0.018272 -0.999692 -0.016809
vn -0.018272 -0.999692 -0.016809
vn -0.018272 -0.999692 -0.016809
vn 0.328582 0.079114 0.941156
vn 0.328582 0.079114 0.941156
vn 0.325331 0.212130 0.921499
vn 0.323071 0.253521 0.911785
vn 0.930369 0.081094 -0.357543
vn 0.930369 0.081094 -0.357543
vn 0.930369 0.081094 -0.357543
vn 0.930369 0.081094 -0.357543
vn -0.993451 -0.067583 0.092126
vn -0.993451 -0.067583 0.092126
vn -0.993451 -0.067583 0.092126
vn -0.993451 -0.067583 0.092126
vn 0.271449 0.605450 0.748161
vn 0.282608 0.551089 0.785133
vn -0.003751 0.999205 0.039680
vn -0.003751 0.999205 0.039680
vn -0.003751 0.999205 0.039680
vn -0.003751 0.999205 0.039680
vn 0.018356 0.999692 0.016691
vn 0.018356 0.999692 0.016691
vn 0.018356 0.999692 0.016691
vn 0.018356 0.999692 0.016691
vn 0.320251 0.033230 0.946750
vn 0.319871 0.033197 0.946880
vn 0.937787 0.090092 -0.335320
vn 0.937787 0.090092 -0.335320
vn 0.896994 0.306221 -0.318796
vn 0.894732 0.313659 -0.317920
vn -0.994498 -0.008620 0.104400
vn -0.994498 -0.008620 0.104400
vn -0.992489 -0.017117 0.121132
vn -0.992268 -0.017968 0.122805
vn 0.316520 0.032902 0.948015
vn 0.316520 0.032902 0.948015
vn 0.836693 0.460907 -0.295822
vn 0.836693 0.460907 -0.295822
vn -0.990547 -0.024184 0.135023
vn -0.990547 -0.024184 0.135023
s off
g Stairs2
usemtl initialShadingGroup
f 17/1/1 18/2/2 19/3/3 20/4/4
f 20/4/5 19/3/6 21/5/7 22/6/8
s 1
f 5/7/9 14/8/10 15/9/11 7/10/12
s 2
f 7/10/13 15/9/14 16/11/15 1/12/16
s 3
f 2/13/17 8/14/18 6/15/19 4/16/20
s 4
f 7/17/21 1/18/22 3/19/23 5/20/24
s off
f 23/21/25 24/22/26 25/23/27 26/24/28
s 1
f 11/25/29 10/26/30 6/27/31 8/28/32
s 2
f 12/29/33 11/25/34 8/28/35 2/30/36
s off
f 23/21/37 27/31/38 28/32/39 24/22/40
f 13/33/41 9/34/42 10/26/43 14/8/44
s 1
f 15/9/11 14/8/10 10/26/30 11/25/29
s 2
f 16/11/15 15/9/14 11/25/34 12/29/33
s off
f 13/33/45 16/35/46 12/36/47 9/34/48
s 2
f 1/18/16 16/35/15 18/2/49 17/1/50
s 5
f 16/35/51 13/33/52 19/3/53 18/2/54
s 4
f 3/19/23 1/18/22 17/1/55 20/4/56
s 5
f 13/33/52 14/8/57 21/5/58 19/3/53
s 1
f 14/8/10 5/7/9 22/6/59 21/5/60
s 4
f 5/7/24 3/19/23 20/4/56 22/6/61
s 3
f 4/16/20 6/27/19 25/23/62 24/22/63
s 1
f 6/27/31 10/26/30 26/24/64 25/23/65
s 6
f 10/26/66 9/34/67 23/21/68 26/24/69
f 9/34/67 12/36/70 27/31/71 23/21/68
s 2
f 12/36/33 2/13/36 28/32/72 27/31/73
s 3
f 2/13/17 4/16/20 24/22/63 28/32/74
s off
f 29/37/75 30/38/76 32/39/77 31/40/78
f 63/41/79 64/42/80 100/43/81 65/44/82
f 82/45/83 83/46/84 30/47/85 29/48/86
f 30/38/87 83/49/88 84/50/89 32/39/90
f 82/51/91 29/37/92 31/40/93 81/52/94
s 7
f 31/40/95 32/39/96 34/53/97 33/54/98
f 32/39/96 84/55/99 85/56/100 34/53/97
f 81/57/101 31/40/95 33/54/98 80/58/102
s off
f 33/54/103 34/53/104 36/59/105 35/60/106
f 34/53/107 85/56/108 86/61/109 36/59/110
f 80/58/111 33/54/112 35/60/113 79/62/114
s 8
f 35/60/115 36/59/116 38/63/117 37/64/118
f 36/59/116 86/61/119 87/65/120 38/63/117
f 79/62/121 35/60/115 37/64/118 78/66/122
s off
f 37/64/123 38/63/124 40/67/125 39/68/126
f 38/63/127 87/65/128 88/69/129 40/67/130
f 78/66/131 37/64/132 39/68/133 77/70/134
s 9
f 39/68/135 40/67/136 42/71/137 41/72/138
f 40/67/136 88/69/139 89/73/140 42/71/137
f 77/70/141 39/68/135 41/72/138 76/74/142
s off
f 41/72/143 42/71/144 44/75/145 43/76/146
f 42/71/147 89/73/148 90/77/149 44/75/150
f 76/74/151 41/72/152 43/76/153 75/78/154
s 10
f 43/76/155 44/75/156 46/79/157 45/80/158
f 44/75/156 90/77/159 91/81/160 46/79/157
f 75/78/161 43/76/155 45/80/158 74/82/162
s 11
f 45/80/163 46/79/164 48/83/165 47/84/166
s off
f 46/79/167 91/81/168 92/85/169 48/83/170
f 74/82/171 45/80/172 47/84/173 73/86/174
s 11
f 47/84/166 48/83/165 50/87/175 49/88/176
s off
f 48/83/177 92/85/178 93/89/179 50/87/180
f 73/86/181 47/84/182 49/88/183 72/90/184
f 49/88/185 50/87/186 52/91/187 51/92/188
f 50/87/189 93/89/190 94/93/191 52/91/192
f 72/90/193 49/88/194 51/92/195 71/94/196
f 51/92/197 52/91/198 54/95/199 53/96/200
f 52/91/201 94/93/202 95/97/203 54/95/204
f 71/94/205 51/92/206 53/96/207 70/98/208
f 53/96/209 54/95/210 56/99/211 55/100/212
f 54/95/213 95/97/214 96/101/215 56/99/216
f 70/98/217 53/96/218 55/100/219 69/102/220
s 12
f 55/100/221 56/99/222 58/103/223 57/104/224
s off
f 56/99/225 96/101/226 97/105/227 58/103/228
f 69/102/229 55/100/230 57/104/231 68/106/232
s 12
f 57/104/224 58/103/223 60/107/233 59/108/234
s off
f 58/103/235 97/105/236 98/109/237 60/107/238
f 68/106/239 57/104/240 59/108/241 67/110/242
s 12
f 59/108/234 60/107/233 62/111/243 61/112/244
s 13
f 60/107/245 98/109/246 99/113/247 62/111/248
s 14
f 67/110/249 59/108/250 61/112/251 66/114/252
s 12
f 61/112/244 62/111/243 64/42/253 63/41/254
s 13
f 62/111/248 99/113/247 100/43/255 64/42/256
s 14
f 66/114/252 61/112/251 63/41/257 65/44/258
