# This file uses centimeters as units for non-parametric coordinates.

mtllib WaterFall Skinny 2.mtl
g default
v -30.138934 -52.625395 -385.731194
v -29.608241 -52.609298 -385.816689
v -29.077549 -52.593201 -385.902184
v -28.546856 -52.577104 -385.987678
v -28.016163 -52.561007 -386.073173
v -27.485470 -52.544910 -386.158668
v -30.911551 -33.111559 -386.852978
v -30.380858 -33.095462 -386.938473
v -29.850165 -33.079365 -387.023967
v -29.319472 -33.063268 -387.109462
v -28.788780 -33.047171 -387.194957
v -28.258087 -33.031074 -387.280452
v -31.684168 -13.597721 -387.974762
v -31.153475 -13.581624 -388.060257
v -30.622782 -13.565527 -388.145752
v -30.092089 -13.549430 -388.231246
v -29.561397 -13.533333 -388.316741
v -29.030704 -13.517235 -388.402236
v -32.456785 5.916118 -389.096546
v -31.926092 5.932215 -389.182041
v -31.395399 5.948312 -389.267536
v -30.864706 5.964409 -389.353031
v -30.334014 5.980506 -389.438525
v -29.803321 5.996603 -389.524020
v -33.229402 25.429953 -390.218330
v -32.698709 25.446050 -390.303825
v -32.168016 25.462147 -390.389320
v -31.637323 25.478245 -390.474814
v -31.106630 25.494342 -390.560309
v -30.575938 25.510439 -390.645804
v -34.002019 44.943789 -391.340114
v -33.474135 45.030853 -391.429688
v -32.949060 45.188822 -391.523339
v -32.421132 45.274752 -391.612848
v -31.890439 45.290849 -391.698343
v -31.359746 45.306946 -391.783838
vt 0.000527 0.000000
vt 0.199844 0.000105
vt 0.399161 0.000211
vt 0.598479 0.000316
vt 0.797796 0.000422
vt 0.997113 0.000527
vt 0.000422 0.199317
vt 0.199739 0.199423
vt 0.399056 0.199528
vt 0.598373 0.199633
vt 0.797690 0.199739
vt 0.997007 0.199844
vt 0.000316 0.398634
vt 0.199633 0.398740
vt 0.398951 0.398845
vt 0.598268 0.398951
vt 0.797585 0.399056
vt 0.996902 0.399161
vt 0.000211 0.597951
vt 0.199528 0.598057
vt 0.398845 0.598162
vt 0.598162 0.598268
vt 0.797479 0.598373
vt 0.996796 0.598479
vt 0.000105 0.797268
vt 0.199423 0.797374
vt 0.398740 0.797479
vt 0.598057 0.797585
vt 0.797374 0.797690
vt 0.996691 0.797796
vt 0.000000 0.996585
vt 0.199317 0.997416
vt 0.398633 0.998970
vt 0.597950 0.999789
vt 0.797267 0.999895
vt 0.996584 1.000000
vn 0.156876 0.062871 0.985615
vn 0.156876 0.062871 0.985615
vn 0.156876 0.062871 0.985615
vn 0.156876 0.062871 0.985615
vn 0.156876 0.062871 0.985615
vn 0.156876 0.062871 0.985615
vn 0.156876 0.062871 0.985615
vn 0.156876 0.062871 0.985615
vn 0.156876 0.062871 0.985615
vn 0.156876 0.062871 0.985615
vn 0.156876 0.062871 0.985615
vn 0.156876 0.062871 0.985615
vn 0.156876 0.062871 0.985615
vn 0.156876 0.062871 0.985615
vn 0.156876 0.062871 0.985615
vn 0.156876 0.062871 0.985615
vn 0.156876 0.062871 0.985615
vn 0.156876 0.062871 0.985615
vn 0.156876 0.062871 0.985615
vn 0.156876 0.062871 0.985615
vn 0.156876 0.062871 0.985615
vn 0.156876 0.062871 0.985615
vn 0.156876 0.062871 0.985615
vn 0.156876 0.062871 0.985615
vn 0.156876 0.062871 0.985615
vn 0.156876 0.062871 0.985615
vn 0.156876 0.062871 0.985615
vn 0.156876 0.062871 0.985615
vn 0.156876 0.062871 0.985615
vn 0.156876 0.062871 0.985615
vn 0.156876 0.062871 0.985615
vn 0.156876 0.062871 0.985615
vn 0.156876 0.062871 0.985615
vn 0.156876 0.062871 0.985615
vn 0.156876 0.062871 0.985615
vn 0.156876 0.062871 0.985615
s 1
g pPlane5
usemtl initialShadingGroup
f 1/1/1 2/2/2 8/8/3 7/7/4
f 2/2/2 3/3/5 9/9/6 8/8/3
f 3/3/5 4/4/7 10/10/8 9/9/6
f 4/4/7 5/5/9 11/11/10 10/10/8
f 5/5/9 6/6/11 12/12/12 11/11/10
f 7/7/4 8/8/3 14/14/13 13/13/14
f 8/8/3 9/9/6 15/15/15 14/14/13
f 9/9/6 10/10/8 16/16/16 15/15/15
f 10/10/8 11/11/10 17/17/17 16/16/16
f 11/11/10 12/12/12 18/18/18 17/17/17
f 13/13/14 14/14/13 20/20/19 19/19/20
f 14/14/13 15/15/15 21/21/21 20/20/19
f 15/15/15 16/16/16 22/22/22 21/21/21
f 16/16/16 17/17/17 23/23/23 22/22/22
f 17/17/17 18/18/18 24/24/24 23/23/23
f 19/19/20 20/20/19 26/26/25 25/25/26
f 20/20/19 21/21/21 27/27/27 26/26/25
f 21/21/21 22/22/22 28/28/28 27/27/27
f 22/22/22 23/23/23 29/29/29 28/28/28
f 23/23/23 24/24/24 30/30/30 29/29/29
f 25/25/26 26/26/25 32/32/31 31/31/32
f 26/26/25 27/27/27 33/33/33 32/32/31
f 27/27/27 28/28/28 34/34/34 33/33/33
f 28/28/28 29/29/29 35/35/35 34/34/34
f 29/29/29 30/30/30 36/36/36 35/35/35
